# xmcd
#
# Track frame offsets: 
#        150
#        19960
#        40835
#        58650
#        75850
#        94505
#        110047
#        131004
#        152501
#        167691
#        183316
#
# Disc length: 2677 seconds
#
# Revision: 0
# Processed by: cddbd v1.5.2PL0 Copyright (c) Steve Scherf et al.
# Submitted via: ExactAudioCopy v1.0b1
#
DISCID=800a730b
DTITLE=Susan Tedeschi - Back To The River
DYEAR=2008
DGENRE=Electric Blues
TTITLE0=Talking About
TTITLE1=700 Houses
TTITLE2=Back to the River
TTITLE3=Love Will
TTITLE4=Butterfly
TTITLE5=People
TTITLE6=Learning the Hard Way
TTITLE7=Revolutionize Your Soul
TTITLE8=True
TTITLE9=There's a Break in the Road
TTITLE10=Can't Sleep at Night
EXTD=
EXTT0=
EXTT1=
EXTT2=
EXTT3=
EXTT4=
EXTT5=
EXTT6=
EXTT7=
EXTT8=
EXTT9=
EXTT10=
PLAYORDER=
